{
    "asset" : {
        "copyright" : "CultureConnection",
        "generator" : "Khronos glTF Blender I/O v1.8.19",
        "version" : "2.0"
    },
    "scene" : 0,
    "scenes" : [
        {
            "name" : "Scene",
            "nodes" : [
                0
            ]
        }
    ],
    "nodes" : [
        {
            "mesh" : 0,
            "name" : "Book"
        }
    ],
    "animations" : [
        {
            "channels" : [
                {
                    "sampler" : 0,
                    "target" : {
                        "node" : 0,
                        "path" : "weights"
                    }
                }
            ],
            "name" : "KeyAction.001",
            "samplers" : [
                {
                    "input" : 36,
                    "interpolation" : "LINEAR",
                    "output" : 37
                }
            ]
        }
    ],
    "materials" : [
        {
            "doubleSided" : true,
            "name" : "Material",
            "pbrMetallicRoughness" : {
                "baseColorFactor" : [
                    0.800000011920929,
                    0.800000011920929,
                    0.800000011920929,
                    1
                ],
                "metallicFactor" : 0,
                "roughnessFactor" : 0.4000000059604645
            }
        },
        {
            "doubleSided" : true,
            "name" : "Book",
            "pbrMetallicRoughness" : {
                "baseColorFactor" : [
                    0.02121901698410511,
                    0.010960093699395657,
                    0.029556844383478165,
                    1
                ],
                "metallicFactor" : 0,
                "roughnessFactor" : 0.5
            }
        },
        {
            "doubleSided" : true,
            "name" : "Pen",
            "normalTexture" : {
                "index" : 0
            },
            "pbrMetallicRoughness" : {
                "baseColorTexture" : {
                    "index" : 1
                },
                "metallicRoughnessTexture" : {
                    "index" : 2
                }
            }
        }
    ],
    "meshes" : [
        {
            "extras" : {
                "targetNames" : [
                    "Fly",
                    "Pen",
                    "Pen2",
                    "Pen3"
                ]
            },
            "name" : "\ud3c9\uba74.010",
            "primitives" : [
                {
                    "attributes" : {
                        "POSITION" : 0,
                        "NORMAL" : 1,
                        "TEXCOORD_0" : 2
                    },
                    "indices" : 3,
                    "material" : 0,
                    "targets" : [
                        {
                            "POSITION" : 4,
                            "NORMAL" : 5
                        },
                        {
                            "POSITION" : 6,
                            "NORMAL" : 7
                        },
                        {
                            "POSITION" : 8,
                            "NORMAL" : 9
                        },
                        {
                            "POSITION" : 10,
                            "NORMAL" : 11
                        }
                    ]
                },
                {
                    "attributes" : {
                        "POSITION" : 12,
                        "NORMAL" : 13,
                        "TEXCOORD_0" : 14
                    },
                    "indices" : 15,
                    "material" : 1,
                    "targets" : [
                        {
                            "POSITION" : 16,
                            "NORMAL" : 17
                        },
                        {
                            "POSITION" : 18,
                            "NORMAL" : 19
                        },
                        {
                            "POSITION" : 20,
                            "NORMAL" : 21
                        },
                        {
                            "POSITION" : 22,
                            "NORMAL" : 23
                        }
                    ]
                },
                {
                    "attributes" : {
                        "POSITION" : 24,
                        "NORMAL" : 25,
                        "TEXCOORD_0" : 26
                    },
                    "indices" : 27,
                    "material" : 2,
                    "targets" : [
                        {
                            "POSITION" : 28,
                            "NORMAL" : 29
                        },
                        {
                            "POSITION" : 30,
                            "NORMAL" : 31
                        },
                        {
                            "POSITION" : 32,
                            "NORMAL" : 33
                        },
                        {
                            "POSITION" : 34,
                            "NORMAL" : 35
                        }
                    ]
                }
            ],
            "weights" : [
                0,
                0,
                0,
                0
            ]
        }
    ],
    "textures" : [
        {
            "sampler" : 0,
            "source" : 0
        },
        {
            "sampler" : 0,
            "source" : 1
        },
        {
            "sampler" : 0,
            "source" : 2
        }
    ],
    "images" : [
        {
            "bufferView" : 28,
            "mimeType" : "image/png",
            "name" : "DefaultMaterial_Normal"
        },
        {
            "bufferView" : 29,
            "mimeType" : "image/png",
            "name" : "DefaultMaterial_Base_color"
        },
        {
            "bufferView" : 30,
            "mimeType" : "image/png",
            "name" : "DefaultMaterial_Metallic-DefaultMaterial_Roughness"
        }
    ],
    "accessors" : [
        {
            "bufferView" : 0,
            "componentType" : 5126,
            "count" : 468,
            "max" : [
                0.7545100450515747,
                0.17398104071617126,
                0.6639241576194763
            ],
            "min" : [
                -0.7587512731552124,
                -0.9983454942703247,
                -0.6727874875068665
            ],
            "type" : "VEC3"
        },
        {
            "bufferView" : 1,
            "componentType" : 5126,
            "count" : 468,
            "type" : "VEC3"
        },
        {
            "bufferView" : 2,
            "componentType" : 5126,
            "count" : 468,
            "type" : "VEC2"
        },
        {
            "bufferView" : 3,
            "componentType" : 5123,
            "count" : 1296,
            "type" : "SCALAR"
        },
        {
            "bufferView" : 4,
            "componentType" : 5126,
            "count" : 468,
            "max" : [
                0,
                0.17269325256347656,
                0
            ],
            "min" : [
                0,
                0.17269322276115417,
                0
            ],
            "type" : "VEC3"
        },
        {
            "bufferView" : 5,
            "componentType" : 5126,
            "count" : 468,
            "type" : "VEC3"
        },
        {
            "bufferView" : 6,
            "componentType" : 5126,
            "count" : 468,
            "max" : [
                0,
                0,
                0
            ],
            "min" : [
                0,
                0,
                0
            ],
            "type" : "VEC3"
        },
        {
            "bufferView" : 7,
            "componentType" : 5126,
            "count" : 468,
            "type" : "VEC3"
        },
        {
            "bufferView" : 8,
            "componentType" : 5126,
            "count" : 468,
            "max" : [
                0,
                0,
                0
            ],
            "min" : [
                0,
                0,
                0
            ],
            "type" : "VEC3"
        },
        {
            "bufferView" : 9,
            "componentType" : 5126,
            "count" : 468,
            "type" : "VEC3"
        },
        {
            "bufferView" : 10,
            "componentType" : 5126,
            "count" : 468,
            "max" : [
                0,
                0,
                0
            ],
            "min" : [
                0,
                0,
                0
            ],
            "type" : "VEC3"
        },
        {
            "bufferView" : 11,
            "componentType" : 5126,
            "count" : 468,
            "type" : "VEC3"
        },
        {
            "bufferView" : 12,
            "componentType" : 5126,
            "count" : 219,
            "max" : [
                0.8776543140411377,
                -0.008809894323348999,
                0.756751537322998
            ],
            "min" : [
                -0.8776675462722778,
                -1.101041555404663,
                -0.6118484735488892
            ],
            "type" : "VEC3"
        },
        {
            "bufferView" : 13,
            "componentType" : 5126,
            "count" : 219,
            "type" : "VEC3"
        },
        {
            "bufferView" : 14,
            "componentType" : 5126,
            "count" : 219,
            "type" : "VEC2"
        },
        {
            "bufferView" : 15,
            "componentType" : 5123,
            "count" : 828,
            "type" : "SCALAR"
        },
        {
            "bufferView" : 16,
            "componentType" : 5126,
            "count" : 219,
            "max" : [
                0,
                0.17269325256347656,
                0
            ],
            "min" : [
                0,
                0.17269322276115417,
                0
            ],
            "type" : "VEC3"
        },
        {
            "bufferView" : 17,
            "componentType" : 5126,
            "count" : 219,
            "type" : "VEC3"
        },
        {
            "bufferView" : 18,
            "componentType" : 5126,
            "count" : 219,
            "max" : [
                0,
                0,
                0
            ],
            "min" : [
                0,
                0,
                0
            ],
            "type" : "VEC3"
        },
        {
            "bufferView" : 19,
            "componentType" : 5126,
            "count" : 219,
            "type" : "VEC3"
        },
        {
            "bufferView" : 20,
            "componentType" : 5126,
            "count" : 219,
            "max" : [
                0,
                0,
                0
            ],
            "min" : [
                0,
                0,
                0
            ],
            "type" : "VEC3"
        },
        {
            "bufferView" : 21,
            "componentType" : 5126,
            "count" : 219,
            "type" : "VEC3"
        },
        {
            "bufferView" : 22,
            "componentType" : 5126,
            "count" : 219,
            "max" : [
                0,
                0,
                0
            ],
            "min" : [
                0,
                0,
                0
            ],
            "type" : "VEC3"
        },
        {
            "bufferView" : 23,
            "componentType" : 5126,
            "count" : 219,
            "type" : "VEC3"
        },
        {
            "bufferView" : 24,
            "componentType" : 5126,
            "count" : 1024,
            "max" : [
                1.159650444984436,
                1.5705809593200684,
                0.05779741704463959
            ],
            "min" : [
                0.33762693405151367,
                0.06606686115264893,
                -0.36710095405578613
            ],
            "type" : "VEC3"
        },
        {
            "bufferView" : 25,
            "componentType" : 5126,
            "count" : 1024,
            "type" : "VEC3"
        },
        {
            "bufferView" : 26,
            "componentType" : 5126,
            "count" : 1024,
            "type" : "VEC2"
        },
        {
            "bufferView" : 27,
            "componentType" : 5123,
            "count" : 5274,
            "type" : "SCALAR"
        },
        {
            "bufferView" : 31,
            "componentType" : 5126,
            "count" : 1024,
            "max" : [
                0,
                0,
                0
            ],
            "min" : [
                0,
                0,
                0
            ],
            "type" : "VEC3"
        },
        {
            "bufferView" : 32,
            "componentType" : 5126,
            "count" : 1024,
            "type" : "VEC3"
        },
        {
            "bufferView" : 33,
            "componentType" : 5126,
            "count" : 1024,
            "max" : [
                0.4689984917640686,
                0.479905366897583,
                6.705522537231445e-08
            ],
            "min" : [
                0.46899843215942383,
                0.47990530729293823,
                5.960464477539063e-08
            ],
            "type" : "VEC3"
        },
        {
            "bufferView" : 34,
            "componentType" : 5126,
            "count" : 1024,
            "type" : "VEC3"
        },
        {
            "bufferView" : 35,
            "componentType" : 5126,
            "count" : 1024,
            "max" : [
                -0.25512975454330444,
                -0.16486656665802002,
                -1.4901161193847656e-08
            ],
            "min" : [
                -1.1395530700683594,
                -0.44142961502075195,
                -8.940696716308594e-08
            ],
            "type" : "VEC3"
        },
        {
            "bufferView" : 36,
            "componentType" : 5126,
            "count" : 1024,
            "type" : "VEC3"
        },
        {
            "bufferView" : 37,
            "componentType" : 5126,
            "count" : 1024,
            "max" : [
                0.23250508308410645,
                0.07890403270721436,
                0.12966783344745636
            ],
            "min" : [
                -0.5549302101135254,
                -0.08450973033905029,
                -0.3598487973213196
            ],
            "type" : "VEC3"
        },
        {
            "bufferView" : 38,
            "componentType" : 5126,
            "count" : 1024,
            "type" : "VEC3"
        },
        {
            "bufferView" : 39,
            "componentType" : 5126,
            "count" : 81,
            "max" : [
                3.3333333333333335
            ],
            "min" : [
                0
            ],
            "type" : "SCALAR"
        },
        {
            "bufferView" : 40,
            "componentType" : 5126,
            "count" : 324,
            "type" : "SCALAR"
        }
    ],
    "bufferViews" : [
        {
            "buffer" : 0,
            "byteLength" : 5616,
            "byteOffset" : 0
        },
        {
            "buffer" : 0,
            "byteLength" : 5616,
            "byteOffset" : 5616
        },
        {
            "buffer" : 0,
            "byteLength" : 3744,
            "byteOffset" : 11232
        },
        {
            "buffer" : 0,
            "byteLength" : 2592,
            "byteOffset" : 14976
        },
        {
            "buffer" : 0,
            "byteLength" : 5616,
            "byteOffset" : 17568
        },
        {
            "buffer" : 0,
            "byteLength" : 5616,
            "byteOffset" : 23184
        },
        {
            "buffer" : 0,
            "byteLength" : 5616,
            "byteOffset" : 28800
        },
        {
            "buffer" : 0,
            "byteLength" : 5616,
            "byteOffset" : 34416
        },
        {
            "buffer" : 0,
            "byteLength" : 5616,
            "byteOffset" : 40032
        },
        {
            "buffer" : 0,
            "byteLength" : 5616,
            "byteOffset" : 45648
        },
        {
            "buffer" : 0,
            "byteLength" : 5616,
            "byteOffset" : 51264
        },
        {
            "buffer" : 0,
            "byteLength" : 5616,
            "byteOffset" : 56880
        },
        {
            "buffer" : 0,
            "byteLength" : 2628,
            "byteOffset" : 62496
        },
        {
            "buffer" : 0,
            "byteLength" : 2628,
            "byteOffset" : 65124
        },
        {
            "buffer" : 0,
            "byteLength" : 1752,
            "byteOffset" : 67752
        },
        {
            "buffer" : 0,
            "byteLength" : 1656,
            "byteOffset" : 69504
        },
        {
            "buffer" : 0,
            "byteLength" : 2628,
            "byteOffset" : 71160
        },
        {
            "buffer" : 0,
            "byteLength" : 2628,
            "byteOffset" : 73788
        },
        {
            "buffer" : 0,
            "byteLength" : 2628,
            "byteOffset" : 76416
        },
        {
            "buffer" : 0,
            "byteLength" : 2628,
            "byteOffset" : 79044
        },
        {
            "buffer" : 0,
            "byteLength" : 2628,
            "byteOffset" : 81672
        },
        {
            "buffer" : 0,
            "byteLength" : 2628,
            "byteOffset" : 84300
        },
        {
            "buffer" : 0,
            "byteLength" : 2628,
            "byteOffset" : 86928
        },
        {
            "buffer" : 0,
            "byteLength" : 2628,
            "byteOffset" : 89556
        },
        {
            "buffer" : 0,
            "byteLength" : 12288,
            "byteOffset" : 92184
        },
        {
            "buffer" : 0,
            "byteLength" : 12288,
            "byteOffset" : 104472
        },
        {
            "buffer" : 0,
            "byteLength" : 8192,
            "byteOffset" : 116760
        },
        {
            "buffer" : 0,
            "byteLength" : 10548,
            "byteOffset" : 124952
        },
        {
            "buffer" : 0,
            "byteLength" : 1900,
            "byteOffset" : 135500
        },
        {
            "buffer" : 0,
            "byteLength" : 74607,
            "byteOffset" : 137400
        },
        {
            "buffer" : 0,
            "byteLength" : 18752,
            "byteOffset" : 212008
        },
        {
            "buffer" : 0,
            "byteLength" : 12288,
            "byteOffset" : 230760
        },
        {
            "buffer" : 0,
            "byteLength" : 12288,
            "byteOffset" : 243048
        },
        {
            "buffer" : 0,
            "byteLength" : 12288,
            "byteOffset" : 255336
        },
        {
            "buffer" : 0,
            "byteLength" : 12288,
            "byteOffset" : 267624
        },
        {
            "buffer" : 0,
            "byteLength" : 12288,
            "byteOffset" : 279912
        },
        {
            "buffer" : 0,
            "byteLength" : 12288,
            "byteOffset" : 292200
        },
        {
            "buffer" : 0,
            "byteLength" : 12288,
            "byteOffset" : 304488
        },
        {
            "buffer" : 0,
            "byteLength" : 12288,
            "byteOffset" : 316776
        },
        {
            "buffer" : 0,
            "byteLength" : 324,
            "byteOffset" : 329064
        },
        {
            "buffer" : 0,
            "byteLength" : 1296,
            "byteOffset" : 329388
        }
    ],
    "samplers" : [
        {
            "magFilter" : 9729,
            "minFilter" : 9987
        }
    ],
    "buffers" : [
        {
            "byteLength" : 330684,
            "uri" : "data:application/octet-stream;base64,"
        }
    ]
}
