{
    "asset" : {
        "copyright" : "CultureConnection",
        "generator" : "Khronos glTF Blender I/O v1.8.19",
        "version" : "2.0"
    },
    "scene" : 0,
    "scenes" : [
        {
            "name" : "Scene",
            "nodes" : [
                8
            ]
        }
    ],
    "nodes" : [
        {
            "name" : "Head",
            "rotation" : [
                0,
                2.842170943040401e-14,
                0,
                1
            ],
            "translation" : [
                0,
                0.07744705677032471,
                0
            ]
        },
        {
            "children" : [
                0
            ],
            "name" : "Neck",
            "rotation" : [
                0,
                1.1920925402364446e-07,
                0,
                1
            ],
            "translation" : [
                0,
                0.5404255390167236,
                0
            ]
        },
        {
            "children" : [
                1
            ],
            "name" : "Hip",
            "translation" : [
                0,
                -0.506685197353363,
                0
            ]
        },
        {
            "name" : "Foot_R",
            "rotation" : [
                -0.4915727376937866,
                0.07338733226060867,
                0.6442169547080994,
                0.5813390016555786
            ],
            "scale" : [
                1.0000001192092896,
                0.9999999403953552,
                1.0000001192092896
            ],
            "translation" : [
                1.365119430829509e-07,
                0.2199338674545288,
                -5.997898711029848e-08
            ]
        },
        {
            "children" : [
                3
            ],
            "name" : "Leg_R",
            "rotation" : [
                -0.8795039057731628,
                -0.24679337441921234,
                0.22607743740081787,
                0.33831194043159485
            ],
            "scale" : [
                1.0000001192092896,
                1.0000001192092896,
                1
            ],
            "translation" : [
                -0.3159191310405731,
                -0.5649650692939758,
                -0.011529921554028988
            ]
        },
        {
            "name" : "Foot_L",
            "rotation" : [
                -0.5439695715904236,
                -0.07786919921636581,
                -0.6528112888336182,
                0.5214124321937561
            ],
            "scale" : [
                1.0000001192092896,
                1,
                0.9999999403953552
            ],
            "translation" : [
                -1.365119430829509e-07,
                0.2199338674545288,
                -5.997898711029848e-08
            ]
        },
        {
            "children" : [
                5
            ],
            "name" : "Leg_L",
            "rotation" : [
                -0.8795039057731628,
                0.24679337441921234,
                -0.22607743740081787,
                0.33831194043159485
            ],
            "scale" : [
                1.0000001192092896,
                1.0000001192092896,
                1
            ],
            "translation" : [
                0.3159191310405731,
                -0.5649650692939758,
                -0.011529921554028988
            ]
        },
        {
            "mesh" : 0,
            "name" : "Chick",
            "skin" : 0
        },
        {
            "children" : [
                7,
                2,
                4,
                6
            ],
            "name" : "Jar_Chick"
        }
    ],
    "animations" : [
        {
            "channels" : [
                {
                    "sampler" : 0,
                    "target" : {
                        "node" : 7,
                        "path" : "weights"
                    }
                }
            ],
            "name" : "KeyAction",
            "samplers" : [
                {
                    "input" : 9,
                    "interpolation" : "LINEAR",
                    "output" : 10
                }
            ]
        },
        {
            "channels" : [
                {
                    "sampler" : 0,
                    "target" : {
                        "node" : 2,
                        "path" : "translation"
                    }
                },
                {
                    "sampler" : 1,
                    "target" : {
                        "node" : 2,
                        "path" : "rotation"
                    }
                },
                {
                    "sampler" : 2,
                    "target" : {
                        "node" : 2,
                        "path" : "scale"
                    }
                },
                {
                    "sampler" : 3,
                    "target" : {
                        "node" : 1,
                        "path" : "translation"
                    }
                },
                {
                    "sampler" : 4,
                    "target" : {
                        "node" : 1,
                        "path" : "rotation"
                    }
                },
                {
                    "sampler" : 5,
                    "target" : {
                        "node" : 1,
                        "path" : "scale"
                    }
                },
                {
                    "sampler" : 6,
                    "target" : {
                        "node" : 0,
                        "path" : "translation"
                    }
                },
                {
                    "sampler" : 7,
                    "target" : {
                        "node" : 0,
                        "path" : "rotation"
                    }
                },
                {
                    "sampler" : 8,
                    "target" : {
                        "node" : 0,
                        "path" : "scale"
                    }
                },
                {
                    "sampler" : 9,
                    "target" : {
                        "node" : 4,
                        "path" : "translation"
                    }
                },
                {
                    "sampler" : 10,
                    "target" : {
                        "node" : 4,
                        "path" : "rotation"
                    }
                },
                {
                    "sampler" : 11,
                    "target" : {
                        "node" : 4,
                        "path" : "scale"
                    }
                },
                {
                    "sampler" : 12,
                    "target" : {
                        "node" : 3,
                        "path" : "translation"
                    }
                },
                {
                    "sampler" : 13,
                    "target" : {
                        "node" : 3,
                        "path" : "rotation"
                    }
                },
                {
                    "sampler" : 14,
                    "target" : {
                        "node" : 3,
                        "path" : "scale"
                    }
                },
                {
                    "sampler" : 15,
                    "target" : {
                        "node" : 6,
                        "path" : "translation"
                    }
                },
                {
                    "sampler" : 16,
                    "target" : {
                        "node" : 6,
                        "path" : "rotation"
                    }
                },
                {
                    "sampler" : 17,
                    "target" : {
                        "node" : 6,
                        "path" : "scale"
                    }
                },
                {
                    "sampler" : 18,
                    "target" : {
                        "node" : 5,
                        "path" : "translation"
                    }
                },
                {
                    "sampler" : 19,
                    "target" : {
                        "node" : 5,
                        "path" : "rotation"
                    }
                },
                {
                    "sampler" : 20,
                    "target" : {
                        "node" : 5,
                        "path" : "scale"
                    }
                }
            ],
            "name" : "Jar_ChickAction.001",
            "samplers" : [
                {
                    "input" : 11,
                    "interpolation" : "LINEAR",
                    "output" : 12
                },
                {
                    "input" : 11,
                    "interpolation" : "LINEAR",
                    "output" : 13
                },
                {
                    "input" : 11,
                    "interpolation" : "LINEAR",
                    "output" : 14
                },
                {
                    "input" : 11,
                    "interpolation" : "LINEAR",
                    "output" : 15
                },
                {
                    "input" : 11,
                    "interpolation" : "LINEAR",
                    "output" : 16
                },
                {
                    "input" : 11,
                    "interpolation" : "LINEAR",
                    "output" : 17
                },
                {
                    "input" : 11,
                    "interpolation" : "LINEAR",
                    "output" : 18
                },
                {
                    "input" : 11,
                    "interpolation" : "LINEAR",
                    "output" : 19
                },
                {
                    "input" : 11,
                    "interpolation" : "LINEAR",
                    "output" : 20
                },
                {
                    "input" : 11,
                    "interpolation" : "LINEAR",
                    "output" : 21
                },
                {
                    "input" : 11,
                    "interpolation" : "LINEAR",
                    "output" : 22
                },
                {
                    "input" : 11,
                    "interpolation" : "LINEAR",
                    "output" : 23
                },
                {
                    "input" : 11,
                    "interpolation" : "LINEAR",
                    "output" : 24
                },
                {
                    "input" : 25,
                    "interpolation" : "LINEAR",
                    "output" : 26
                },
                {
                    "input" : 11,
                    "interpolation" : "LINEAR",
                    "output" : 27
                },
                {
                    "input" : 11,
                    "interpolation" : "LINEAR",
                    "output" : 28
                },
                {
                    "input" : 11,
                    "interpolation" : "LINEAR",
                    "output" : 29
                },
                {
                    "input" : 11,
                    "interpolation" : "LINEAR",
                    "output" : 30
                },
                {
                    "input" : 11,
                    "interpolation" : "LINEAR",
                    "output" : 31
                },
                {
                    "input" : 25,
                    "interpolation" : "LINEAR",
                    "output" : 32
                },
                {
                    "input" : 11,
                    "interpolation" : "LINEAR",
                    "output" : 33
                }
            ]
        }
    ],
    "materials" : [
        {
            "doubleSided" : true,
            "name" : "\ub9e4\ud14c\ub9ac\uc5bc",
            "pbrMetallicRoughness" : {
                "baseColorTexture" : {
                    "index" : 0
                },
                "metallicFactor" : 0,
                "metallicRoughnessTexture" : {
                    "index" : 1
                }
            }
        }
    ],
    "meshes" : [
        {
            "extras" : {
                "targetNames" : [
                    "Eye_Close"
                ]
            },
            "name" : "\ud050\ube0c.016",
            "primitives" : [
                {
                    "attributes" : {
                        "POSITION" : 0,
                        "NORMAL" : 1,
                        "TEXCOORD_0" : 2,
                        "JOINTS_0" : 3,
                        "WEIGHTS_0" : 4
                    },
                    "indices" : 5,
                    "material" : 0,
                    "targets" : [
                        {
                            "POSITION" : 6,
                            "NORMAL" : 7
                        }
                    ]
                }
            ],
            "weights" : [
                0
            ]
        }
    ],
    "textures" : [
        {
            "sampler" : 0,
            "source" : 0
        },
        {
            "sampler" : 0,
            "source" : 1
        }
    ],
    "images" : [
        {
            "bufferView" : 6,
            "mimeType" : "image/png",
            "name" : "DefaultMaterial_Base_color"
        },
        {
            "bufferView" : 7,
            "mimeType" : "image/png",
            "name" : "DefaultMaterial_Roughness"
        }
    ],
    "skins" : [
        {
            "inverseBindMatrices" : 8,
            "joints" : [
                2,
                1,
                0,
                4,
                3,
                6,
                5
            ],
            "name" : "Jar_Chick"
        }
    ],
    "accessors" : [
        {
            "bufferView" : 0,
            "componentType" : 5126,
            "count" : 1211,
            "max" : [
                0.8495953679084778,
                1.0033599138259888,
                0.8060528635978699
            ],
            "min" : [
                -0.8495953679084778,
                -0.9225713610649109,
                -0.8790258765220642
            ],
            "type" : "VEC3"
        },
        {
            "bufferView" : 1,
            "componentType" : 5126,
            "count" : 1211,
            "type" : "VEC3"
        },
        {
            "bufferView" : 2,
            "componentType" : 5126,
            "count" : 1211,
            "type" : "VEC2"
        },
        {
            "bufferView" : 3,
            "componentType" : 5121,
            "count" : 1211,
            "type" : "VEC4"
        },
        {
            "bufferView" : 4,
            "componentType" : 5126,
            "count" : 1211,
            "type" : "VEC4"
        },
        {
            "bufferView" : 5,
            "componentType" : 5123,
            "count" : 5832,
            "type" : "SCALAR"
        },
        {
            "bufferView" : 8,
            "componentType" : 5126,
            "count" : 1211,
            "max" : [
                0.007509708404541016,
                0.04374691843986511,
                0
            ],
            "min" : [
                -0.0075097233057022095,
                -0.0437469482421875,
                0
            ],
            "type" : "VEC3"
        },
        {
            "bufferView" : 9,
            "componentType" : 5126,
            "count" : 1211,
            "type" : "VEC3"
        },
        {
            "bufferView" : 10,
            "componentType" : 5126,
            "count" : 7,
            "type" : "MAT4"
        },
        {
            "bufferView" : 11,
            "componentType" : 5126,
            "count" : 61,
            "max" : [
                2.5
            ],
            "min" : [
                0
            ],
            "type" : "SCALAR"
        },
        {
            "bufferView" : 12,
            "componentType" : 5126,
            "count" : 61,
            "type" : "SCALAR"
        },
        {
            "bufferView" : 13,
            "componentType" : 5126,
            "count" : 2,
            "max" : [
                2.5
            ],
            "min" : [
                0.041666666666666664
            ],
            "type" : "SCALAR"
        },
        {
            "bufferView" : 14,
            "componentType" : 5126,
            "count" : 2,
            "type" : "VEC3"
        },
        {
            "bufferView" : 15,
            "componentType" : 5126,
            "count" : 2,
            "type" : "VEC4"
        },
        {
            "bufferView" : 16,
            "componentType" : 5126,
            "count" : 2,
            "type" : "VEC3"
        },
        {
            "bufferView" : 17,
            "componentType" : 5126,
            "count" : 2,
            "type" : "VEC3"
        },
        {
            "bufferView" : 18,
            "componentType" : 5126,
            "count" : 2,
            "type" : "VEC4"
        },
        {
            "bufferView" : 19,
            "componentType" : 5126,
            "count" : 2,
            "type" : "VEC3"
        },
        {
            "bufferView" : 20,
            "componentType" : 5126,
            "count" : 2,
            "type" : "VEC3"
        },
        {
            "bufferView" : 21,
            "componentType" : 5126,
            "count" : 2,
            "type" : "VEC4"
        },
        {
            "bufferView" : 22,
            "componentType" : 5126,
            "count" : 2,
            "type" : "VEC3"
        },
        {
            "bufferView" : 23,
            "componentType" : 5126,
            "count" : 2,
            "type" : "VEC3"
        },
        {
            "bufferView" : 24,
            "componentType" : 5126,
            "count" : 2,
            "type" : "VEC4"
        },
        {
            "bufferView" : 25,
            "componentType" : 5126,
            "count" : 2,
            "type" : "VEC3"
        },
        {
            "bufferView" : 26,
            "componentType" : 5126,
            "count" : 2,
            "type" : "VEC3"
        },
        {
            "bufferView" : 27,
            "componentType" : 5126,
            "count" : 60,
            "max" : [
                2.5
            ],
            "min" : [
                0.041666666666666664
            ],
            "type" : "SCALAR"
        },
        {
            "bufferView" : 28,
            "componentType" : 5126,
            "count" : 60,
            "type" : "VEC4"
        },
        {
            "bufferView" : 29,
            "componentType" : 5126,
            "count" : 2,
            "type" : "VEC3"
        },
        {
            "bufferView" : 30,
            "componentType" : 5126,
            "count" : 2,
            "type" : "VEC3"
        },
        {
            "bufferView" : 31,
            "componentType" : 5126,
            "count" : 2,
            "type" : "VEC4"
        },
        {
            "bufferView" : 32,
            "componentType" : 5126,
            "count" : 2,
            "type" : "VEC3"
        },
        {
            "bufferView" : 33,
            "componentType" : 5126,
            "count" : 2,
            "type" : "VEC3"
        },
        {
            "bufferView" : 34,
            "componentType" : 5126,
            "count" : 60,
            "type" : "VEC4"
        },
        {
            "bufferView" : 35,
            "componentType" : 5126,
            "count" : 2,
            "type" : "VEC3"
        }
    ],
    "bufferViews" : [
        {
            "buffer" : 0,
            "byteLength" : 14532,
            "byteOffset" : 0
        },
        {
            "buffer" : 0,
            "byteLength" : 14532,
            "byteOffset" : 14532
        },
        {
            "buffer" : 0,
            "byteLength" : 9688,
            "byteOffset" : 29064
        },
        {
            "buffer" : 0,
            "byteLength" : 4844,
            "byteOffset" : 38752
        },
        {
            "buffer" : 0,
            "byteLength" : 19376,
            "byteOffset" : 43596
        },
        {
            "buffer" : 0,
            "byteLength" : 11664,
            "byteOffset" : 62972
        },
        {
            "buffer" : 0,
            "byteLength" : 229596,
            "byteOffset" : 74636
        },
        {
            "buffer" : 0,
            "byteLength" : 15799,
            "byteOffset" : 304232
        },
        {
            "buffer" : 0,
            "byteLength" : 14532,
            "byteOffset" : 320032
        },
        {
            "buffer" : 0,
            "byteLength" : 14532,
            "byteOffset" : 334564
        },
        {
            "buffer" : 0,
            "byteLength" : 448,
            "byteOffset" : 349096
        },
        {
            "buffer" : 0,
            "byteLength" : 244,
            "byteOffset" : 349544
        },
        {
            "buffer" : 0,
            "byteLength" : 244,
            "byteOffset" : 349788
        },
        {
            "buffer" : 0,
            "byteLength" : 8,
            "byteOffset" : 350032
        },
        {
            "buffer" : 0,
            "byteLength" : 24,
            "byteOffset" : 350040
        },
        {
            "buffer" : 0,
            "byteLength" : 32,
            "byteOffset" : 350064
        },
        {
            "buffer" : 0,
            "byteLength" : 24,
            "byteOffset" : 350096
        },
        {
            "buffer" : 0,
            "byteLength" : 24,
            "byteOffset" : 350120
        },
        {
            "buffer" : 0,
            "byteLength" : 32,
            "byteOffset" : 350144
        },
        {
            "buffer" : 0,
            "byteLength" : 24,
            "byteOffset" : 350176
        },
        {
            "buffer" : 0,
            "byteLength" : 24,
            "byteOffset" : 350200
        },
        {
            "buffer" : 0,
            "byteLength" : 32,
            "byteOffset" : 350224
        },
        {
            "buffer" : 0,
            "byteLength" : 24,
            "byteOffset" : 350256
        },
        {
            "buffer" : 0,
            "byteLength" : 24,
            "byteOffset" : 350280
        },
        {
            "buffer" : 0,
            "byteLength" : 32,
            "byteOffset" : 350304
        },
        {
            "buffer" : 0,
            "byteLength" : 24,
            "byteOffset" : 350336
        },
        {
            "buffer" : 0,
            "byteLength" : 24,
            "byteOffset" : 350360
        },
        {
            "buffer" : 0,
            "byteLength" : 240,
            "byteOffset" : 350384
        },
        {
            "buffer" : 0,
            "byteLength" : 960,
            "byteOffset" : 350624
        },
        {
            "buffer" : 0,
            "byteLength" : 24,
            "byteOffset" : 351584
        },
        {
            "buffer" : 0,
            "byteLength" : 24,
            "byteOffset" : 351608
        },
        {
            "buffer" : 0,
            "byteLength" : 32,
            "byteOffset" : 351632
        },
        {
            "buffer" : 0,
            "byteLength" : 24,
            "byteOffset" : 351664
        },
        {
            "buffer" : 0,
            "byteLength" : 24,
            "byteOffset" : 351688
        },
        {
            "buffer" : 0,
            "byteLength" : 960,
            "byteOffset" : 351712
        },
        {
            "buffer" : 0,
            "byteLength" : 24,
            "byteOffset" : 352672
        }
    ],
    "samplers" : [
        {
            "magFilter" : 9729,
            "minFilter" : 9987
        }
    ],
    "buffers" : [
        {
            "byteLength" : 352696,
            "uri" : "data:application/octet-stream;base64,"
        }
    ]
}
