{
    "asset" : {
        "generator" : "Khronos glTF Blender I/O v1.8.19",
        "version" : "2.0"
    },
    "scene" : 0,
    "scenes" : [
        {
            "name" : "Scene",
            "nodes" : [
                0
            ]
        }
    ],
    "nodes" : [
        {
            "mesh" : 0,
            "name" : "Hat(6)"
        }
    ],
    "materials" : [
        {
            "doubleSided" : true,
            "name" : "HatsMaterial",
            "pbrMetallicRoughness" : {
                "baseColorTexture" : {
                    "index" : 0
                },
                "metallicFactor" : 0,
                "roughnessFactor" : 0.7470178008079529
            }
        }
    ],
    "meshes" : [
        {
            "name" : "Hat.001_HatsMaterial_0",
            "primitives" : [
                {
                    "attributes" : {
                        "POSITION" : 0,
                        "NORMAL" : 1,
                        "TEXCOORD_0" : 2
                    },
                    "indices" : 3,
                    "material" : 0
                }
            ]
        }
    ],
    "textures" : [
        {
            "sampler" : 0,
            "source" : 0
        }
    ],
    "images" : [
        {
            "bufferView" : 4,
            "mimeType" : "image/png",
            "name" : "HatsMaterial_baseColor"
        }
    ],
    "accessors" : [
        {
            "bufferView" : 0,
            "componentType" : 5126,
            "count" : 3693,
            "max" : [
                1.0499999523162842,
                0.47177654504776,
                1.0460728406906128
            ],
            "min" : [
                -1.049999713897705,
                -0.48760291934013367,
                -1.1783639192581177
            ],
            "type" : "VEC3"
        },
        {
            "bufferView" : 1,
            "componentType" : 5126,
            "count" : 3693,
            "type" : "VEC3"
        },
        {
            "bufferView" : 2,
            "componentType" : 5126,
            "count" : 3693,
            "type" : "VEC2"
        },
        {
            "bufferView" : 3,
            "componentType" : 5123,
            "count" : 5436,
            "type" : "SCALAR"
        }
    ],
    "bufferViews" : [
        {
            "buffer" : 0,
            "byteLength" : 44316,
            "byteOffset" : 0
        },
        {
            "buffer" : 0,
            "byteLength" : 44316,
            "byteOffset" : 44316
        },
        {
            "buffer" : 0,
            "byteLength" : 29544,
            "byteOffset" : 88632
        },
        {
            "buffer" : 0,
            "byteLength" : 10872,
            "byteOffset" : 118176
        },
        {
            "buffer" : 0,
            "byteLength" : 1964,
            "byteOffset" : 129048
        }
    ],
    "samplers" : [
        {
            "magFilter" : 9729,
            "minFilter" : 9987
        }
    ],
    "buffers" : [
        {
            "byteLength" : 131012,
            "uri" : "data:application/octet-stream;base64,"
        }
    ]
}
