{
    "asset" : {
        "generator" : "Khronos glTF Blender I/O v1.8.19",
        "version" : "2.0"
    },
    "scene" : 0,
    "scenes" : [
        {
            "name" : "Scene",
            "nodes" : [
                0
            ]
        }
    ],
    "nodes" : [
        {
            "mesh" : 0,
            "name" : "Hat(7)"
        }
    ],
    "materials" : [
        {
            "doubleSided" : true,
            "name" : "HatsMaterial",
            "pbrMetallicRoughness" : {
                "baseColorTexture" : {
                    "index" : 0
                },
                "metallicFactor" : 0,
                "roughnessFactor" : 0.7470178008079529
            }
        }
    ],
    "meshes" : [
        {
            "name" : "Esfera.001_HatsMaterial_0",
            "primitives" : [
                {
                    "attributes" : {
                        "POSITION" : 0,
                        "NORMAL" : 1,
                        "TEXCOORD_0" : 2
                    },
                    "indices" : 3,
                    "material" : 0
                }
            ]
        }
    ],
    "textures" : [
        {
            "sampler" : 0,
            "source" : 0
        }
    ],
    "images" : [
        {
            "bufferView" : 4,
            "mimeType" : "image/png",
            "name" : "HatsMaterial_baseColor"
        }
    ],
    "accessors" : [
        {
            "bufferView" : 0,
            "componentType" : 5126,
            "count" : 3053,
            "max" : [
                0.8813341856002808,
                0.7456396818161011,
                0.8939833641052246
            ],
            "min" : [
                -0.9639509916305542,
                -0.5020949840545654,
                -0.937298059463501
            ],
            "type" : "VEC3"
        },
        {
            "bufferView" : 1,
            "componentType" : 5126,
            "count" : 3053,
            "type" : "VEC3"
        },
        {
            "bufferView" : 2,
            "componentType" : 5126,
            "count" : 3053,
            "type" : "VEC2"
        },
        {
            "bufferView" : 3,
            "componentType" : 5123,
            "count" : 12072,
            "type" : "SCALAR"
        }
    ],
    "bufferViews" : [
        {
            "buffer" : 0,
            "byteLength" : 36636,
            "byteOffset" : 0
        },
        {
            "buffer" : 0,
            "byteLength" : 36636,
            "byteOffset" : 36636
        },
        {
            "buffer" : 0,
            "byteLength" : 24424,
            "byteOffset" : 73272
        },
        {
            "buffer" : 0,
            "byteLength" : 24144,
            "byteOffset" : 97696
        },
        {
            "buffer" : 0,
            "byteLength" : 1964,
            "byteOffset" : 121840
        }
    ],
    "samplers" : [
        {
            "magFilter" : 9729,
            "minFilter" : 9987
        }
    ],
    "buffers" : [
        {
            "byteLength" : 123804,
            "uri" : "data:application/octet-stream;base64,"
        }
    ]
}
