{
    "asset" : {
        "generator" : "Khronos glTF Blender I/O v1.8.19",
        "version" : "2.0"
    },
    "scene" : 0,
    "scenes" : [
        {
            "name" : "Scene",
            "nodes" : [
                7
            ]
        }
    ],
    "nodes" : [
        {
            "mesh" : 0,
            "name" : "Object_6"
        },
        {
            "children" : [
                0
            ],
            "name" : "Lens_0",
            "translation" : [
                7.152557373046875e-06,
                -0.01443713903427124,
                0.951158881187439
            ]
        },
        {
            "mesh" : 1,
            "name" : "Object_4"
        },
        {
            "children" : [
                1,
                2
            ],
            "name" : "Glasses_1",
            "rotation" : [
                0,
                0.258819043636322,
                0,
                0.9659258127212524
            ],
            "translation" : [
                -4.0000081062316895,
                0.7317340970039368,
                -0.9244864583015442
            ]
        },
        {
            "name" : "Shade_3"
        },
        {
            "children" : [
                3,
                4
            ],
            "name" : "GLTF_SceneRootNode",
            "rotation" : [
                0.7071068286895752,
                0,
                0,
                0.7071068286895752
            ]
        },
        {
            "children" : [
                5
            ],
            "name" : "root"
        },
        {
            "children" : [
                6
            ],
            "name" : "Glasses(3)",
            "rotation" : [
                -0.7071068286895752,
                0,
                0,
                0.7071068286895752
            ],
            "scale" : [
                0.1546119600534439,
                0.1546119600534439,
                0.1546119600534439
            ]
        }
    ],
    "materials" : [
        {
            "alphaMode" : "BLEND",
            "doubleSided" : true,
            "emissiveFactor" : [
                0.006370360031723976,
                0.006370360031723976,
                0.006370360031723976
            ],
            "name" : "Lens.001",
            "pbrMetallicRoughness" : {
                "baseColorFactor" : [
                    0.800000011920929,
                    0.800000011920929,
                    0.800000011920929,
                    0.25
                ],
                "metallicFactor" : 0.4749999940395355,
                "roughnessFactor" : 0.09166669845581055
            }
        },
        {
            "doubleSided" : true,
            "name" : "Frame.001",
            "pbrMetallicRoughness" : {
                "baseColorFactor" : [
                    0,
                    0,
                    0,
                    1
                ],
                "metallicFactor" : 0.2666670083999634,
                "roughnessFactor" : 0.6000000238418579
            }
        }
    ],
    "meshes" : [
        {
            "name" : "Object_1.003",
            "primitives" : [
                {
                    "attributes" : {
                        "POSITION" : 0,
                        "NORMAL" : 1,
                        "TEXCOORD_0" : 2
                    },
                    "indices" : 3,
                    "material" : 0
                }
            ]
        },
        {
            "name" : "Object_0.004",
            "primitives" : [
                {
                    "attributes" : {
                        "POSITION" : 4,
                        "NORMAL" : 5,
                        "TEXCOORD_0" : 6
                    },
                    "indices" : 7,
                    "material" : 1
                }
            ]
        }
    ],
    "accessors" : [
        {
            "bufferView" : 0,
            "componentType" : 5126,
            "count" : 2001,
            "max" : [
                7.583301067352295,
                -0.06389105319976807,
                5.592366695404053
            ],
            "min" : [
                -2.38411283493042,
                -3.7467126846313477,
                -0.21984028816223145
            ],
            "type" : "VEC3"
        },
        {
            "bufferView" : 1,
            "componentType" : 5126,
            "count" : 2001,
            "type" : "VEC3"
        },
        {
            "bufferView" : 2,
            "componentType" : 5126,
            "count" : 2001,
            "type" : "VEC2"
        },
        {
            "bufferView" : 3,
            "componentType" : 5123,
            "count" : 7200,
            "type" : "SCALAR"
        },
        {
            "bufferView" : 4,
            "componentType" : 5126,
            "count" : 5059,
            "max" : [
                13.396024703979492,
                0.18418729305267334,
                6.919137477874756
            ],
            "min" : [
                -2.9751851558685303,
                -3.9211339950561523,
                -8.768939018249512
            ],
            "type" : "VEC3"
        },
        {
            "bufferView" : 5,
            "componentType" : 5126,
            "count" : 5059,
            "type" : "VEC3"
        },
        {
            "bufferView" : 6,
            "componentType" : 5126,
            "count" : 5059,
            "type" : "VEC2"
        },
        {
            "bufferView" : 7,
            "componentType" : 5123,
            "count" : 16920,
            "type" : "SCALAR"
        }
    ],
    "bufferViews" : [
        {
            "buffer" : 0,
            "byteLength" : 24012,
            "byteOffset" : 0
        },
        {
            "buffer" : 0,
            "byteLength" : 24012,
            "byteOffset" : 24012
        },
        {
            "buffer" : 0,
            "byteLength" : 16008,
            "byteOffset" : 48024
        },
        {
            "buffer" : 0,
            "byteLength" : 14400,
            "byteOffset" : 64032
        },
        {
            "buffer" : 0,
            "byteLength" : 60708,
            "byteOffset" : 78432
        },
        {
            "buffer" : 0,
            "byteLength" : 60708,
            "byteOffset" : 139140
        },
        {
            "buffer" : 0,
            "byteLength" : 40472,
            "byteOffset" : 199848
        },
        {
            "buffer" : 0,
            "byteLength" : 33840,
            "byteOffset" : 240320
        }
    ],
    "buffers" : [
        {
            "byteLength" : 274160,
            "uri" : "data:application/octet-stream;base64,"
        }
    ]
}
